<svg width="268" height="168" viewBox="0 0 268 168" fill="none" xmlns="http://www.w3.org/2000/svg">
<rect x="0.5" y="0.5" width="267" height="167" rx="11.5" fill="white"/>
<rect x="0.5" y="0.5" width="267" height="167" rx="11.5" stroke="#EAEEF4"/>
<path d="M36.3111 37.1662H34.3168C34.2401 36.7401 34.0973 36.3651 33.8885 36.0412C33.6797 35.7173 33.424 35.4425 33.1214 35.2166C32.8189 34.9908 32.4801 34.8203 32.1051 34.7053C31.7344 34.5902 31.3402 34.5327 30.9226 34.5327C30.1683 34.5327 29.4929 34.7223 28.8963 35.1016C28.304 35.4808 27.8352 36.0369 27.4901 36.7699C27.1491 37.5028 26.9787 38.3977 26.9787 39.4545C26.9787 40.5199 27.1491 41.419 27.4901 42.152C27.8352 42.8849 28.3061 43.4389 28.9027 43.8139C29.4993 44.1889 30.1705 44.3764 30.9162 44.3764C31.3295 44.3764 31.7216 44.321 32.0923 44.2102C32.4673 44.0952 32.8061 43.9268 33.1087 43.7053C33.4112 43.4837 33.6669 43.2131 33.8757 42.8935C34.0888 42.5696 34.2358 42.1989 34.3168 41.7812L36.3111 41.7876C36.2045 42.4311 35.9979 43.0234 35.6911 43.5646C35.3885 44.1016 34.9986 44.5661 34.5213 44.9581C34.0483 45.3459 33.5071 45.6463 32.8977 45.8594C32.2884 46.0724 31.6236 46.179 30.9034 46.179C29.7699 46.179 28.7599 45.9105 27.8736 45.3736C26.9872 44.8324 26.2884 44.0589 25.777 43.0533C25.2699 42.0476 25.0163 40.848 25.0163 39.4545C25.0163 38.0568 25.272 36.8572 25.7834 35.8558C26.2947 34.8501 26.9936 34.0788 27.88 33.5419C28.7663 33.0007 29.7741 32.7301 30.9034 32.7301C31.598 32.7301 32.2457 32.8303 32.8466 33.0305C33.4517 33.2266 33.995 33.5163 34.4766 33.8999C34.9581 34.2791 35.3565 34.7436 35.6719 35.2933C35.9872 35.8388 36.2003 36.4631 36.3111 37.1662ZM44.7406 41.9283V36.1818H46.6582V46H44.7789V44.2997H44.6767C44.4508 44.8239 44.0886 45.2607 43.59 45.6101C43.0957 45.9553 42.4799 46.1278 41.7427 46.1278C41.112 46.1278 40.5538 45.9893 40.068 45.7124C39.5865 45.4311 39.2072 45.0156 38.9302 44.4659C38.6575 43.9162 38.5211 43.2365 38.5211 42.4268V36.1818H40.4324V42.1967C40.4324 42.8658 40.6177 43.3984 40.9885 43.7947C41.3592 44.1911 41.8407 44.3892 42.4331 44.3892C42.791 44.3892 43.1468 44.2997 43.5005 44.1207C43.8585 43.9418 44.1547 43.6712 44.389 43.3089C44.6277 42.9467 44.7449 42.4865 44.7406 41.9283ZM56.5835 38.5788L54.8512 38.8857C54.7788 38.6641 54.6637 38.4531 54.506 38.2528C54.3526 38.0526 54.1438 37.8885 53.8796 37.7607C53.6154 37.6328 53.2852 37.5689 52.8888 37.5689C52.3477 37.5689 51.896 37.6903 51.5337 37.9332C51.1715 38.1719 50.9904 38.4808 50.9904 38.8601C50.9904 39.1882 51.1119 39.4524 51.3548 39.6527C51.5977 39.853 51.9897 40.017 52.5309 40.1449L54.0906 40.5028C54.994 40.7116 55.6673 41.0334 56.1104 41.468C56.5536 41.9027 56.7752 42.4673 56.7752 43.1619C56.7752 43.75 56.6048 44.2741 56.2638 44.7344C55.9272 45.1903 55.4563 45.5483 54.8512 45.8082C54.2504 46.0682 53.5536 46.1982 52.761 46.1982C51.6616 46.1982 50.7646 45.9638 50.07 45.495C49.3754 45.022 48.9492 44.3509 48.7915 43.4815L50.6388 43.2003C50.7539 43.6818 50.9904 44.0462 51.3484 44.2933C51.7063 44.5362 52.1729 44.6577 52.7482 44.6577C53.3746 44.6577 53.8754 44.5277 54.2504 44.2678C54.6254 44.0036 54.8129 43.6818 54.8129 43.3026C54.8129 42.9957 54.6978 42.7379 54.4677 42.5291C54.2418 42.3203 53.8945 42.1626 53.4258 42.0561L51.7638 41.6918C50.8477 41.483 50.1701 41.1506 49.7312 40.6946C49.2965 40.2386 49.0792 39.6612 49.0792 38.9624C49.0792 38.3828 49.2411 37.8757 49.565 37.4411C49.8888 37.0064 50.3363 36.6676 50.9073 36.4247C51.4783 36.1776 52.1325 36.054 52.8697 36.054C53.9308 36.054 54.766 36.2841 55.3754 36.7443C55.9847 37.2003 56.3874 37.8118 56.5835 38.5788ZM63.4597 36.1818V37.7159H58.0968V36.1818H63.4597ZM59.535 33.8295H61.4462V43.1172C61.4462 43.4879 61.5016 43.767 61.6124 43.9545C61.7232 44.1378 61.8659 44.2635 62.0407 44.3317C62.2196 44.3956 62.4135 44.4276 62.6223 44.4276C62.7757 44.4276 62.91 44.4169 63.025 44.3956C63.1401 44.3743 63.2296 44.3572 63.2935 44.3445L63.6387 45.9233C63.5279 45.9659 63.3702 46.0085 63.1657 46.0511C62.9611 46.098 62.7054 46.1236 62.3986 46.1278C61.8958 46.1364 61.427 46.0469 60.9924 45.8594C60.5577 45.6719 60.2061 45.3821 59.9377 44.9901C59.6692 44.598 59.535 44.1058 59.535 43.5135V33.8295ZM69.604 46.1982C68.6836 46.1982 67.8803 45.9872 67.1942 45.5653C66.5082 45.1435 65.9755 44.5533 65.5962 43.7947C65.217 43.0362 65.0273 42.1499 65.0273 41.1357C65.0273 40.1172 65.217 39.2266 65.5962 38.4638C65.9755 37.701 66.5082 37.1087 67.1942 36.6868C67.8803 36.2649 68.6836 36.054 69.604 36.054C70.5245 36.054 71.3278 36.2649 72.0138 36.6868C72.6999 37.1087 73.2326 37.701 73.6119 38.4638C73.9911 39.2266 74.1808 40.1172 74.1808 41.1357C74.1808 42.1499 73.9911 43.0362 73.6119 43.7947C73.2326 44.5533 72.6999 45.1435 72.0138 45.5653C71.3278 45.9872 70.5245 46.1982 69.604 46.1982ZM69.6104 44.5938C70.207 44.5938 70.7013 44.4361 71.0934 44.1207C71.4854 43.8054 71.7752 43.3857 71.9627 42.8615C72.1545 42.3374 72.2504 41.7599 72.2504 41.1293C72.2504 40.5028 72.1545 39.9276 71.9627 39.4034C71.7752 38.875 71.4854 38.451 71.0934 38.1314C70.7013 37.8118 70.207 37.652 69.6104 37.652C69.0096 37.652 68.511 37.8118 68.1147 38.1314C67.7227 38.451 67.4308 38.875 67.239 39.4034C67.0515 39.9276 66.9577 40.5028 66.9577 41.1293C66.9577 41.7599 67.0515 42.3374 67.239 42.8615C67.4308 43.3857 67.7227 43.8054 68.1147 44.1207C68.511 44.4361 69.0096 44.5938 69.6104 44.5938ZM76.3141 46V36.1818H78.1486V37.7798H78.2701C78.4746 37.2386 78.8091 36.8168 79.2736 36.5142C79.7381 36.2074 80.2942 36.054 80.9419 36.054C81.5982 36.054 82.1479 36.2074 82.5911 36.5142C83.0385 36.821 83.3688 37.2429 83.5819 37.7798H83.6841C83.9185 37.2557 84.2914 36.8381 84.8027 36.527C85.3141 36.2116 85.9235 36.054 86.6309 36.054C87.5215 36.054 88.248 36.3331 88.8105 36.8913C89.3773 37.4496 89.6607 38.2912 89.6607 39.4162V46H87.7495V39.5952C87.7495 38.9304 87.5684 38.4489 87.2061 38.1506C86.8439 37.8523 86.4114 37.7031 85.9086 37.7031C85.2864 37.7031 84.8027 37.8949 84.4576 38.2784C84.1124 38.6577 83.9398 39.1456 83.9398 39.7422V46H82.035V39.4737C82.035 38.9411 81.8688 38.5128 81.5364 38.1889C81.204 37.8651 80.7715 37.7031 80.2388 37.7031C79.8766 37.7031 79.5421 37.799 79.2353 37.9908C78.9327 38.1783 78.6877 38.4403 78.5002 38.777C78.3169 39.1136 78.2253 39.5036 78.2253 39.9467V46H76.3141ZM96.4538 46.1982C95.4865 46.1982 94.6534 45.9915 93.9545 45.5781C93.2599 45.1605 92.723 44.5746 92.3438 43.8203C91.9688 43.0618 91.7812 42.1733 91.7812 41.1548C91.7812 40.1491 91.9688 39.2628 92.3438 38.4957C92.723 37.7287 93.2514 37.13 93.929 36.6996C94.6108 36.2692 95.4077 36.054 96.3196 36.054C96.8736 36.054 97.4105 36.1456 97.9304 36.3288C98.4503 36.5121 98.9169 36.7997 99.3303 37.1918C99.7436 37.5838 100.07 38.093 100.308 38.7195C100.547 39.3416 100.666 40.098 100.666 40.9886V41.6662H92.8615V40.2344H98.7933C98.7933 39.7315 98.6911 39.2862 98.4865 38.8984C98.282 38.5064 97.9943 38.1974 97.6236 37.9716C97.2571 37.7457 96.8267 37.6328 96.3324 37.6328C95.7955 37.6328 95.3267 37.7649 94.9261 38.0291C94.5298 38.2891 94.223 38.63 94.0057 39.0518C93.7926 39.4695 93.6861 39.9233 93.6861 40.4134V41.532C93.6861 42.1882 93.8011 42.7464 94.0312 43.2067C94.2656 43.6669 94.5916 44.0185 95.0092 44.2614C95.4268 44.5 95.9148 44.6193 96.473 44.6193C96.8352 44.6193 97.1655 44.5682 97.4638 44.4659C97.7621 44.3594 98.0199 44.2017 98.2372 43.9929C98.4545 43.7841 98.6207 43.5263 98.7358 43.2195L100.545 43.5455C100.4 44.0781 100.14 44.5447 99.7649 44.9453C99.3942 45.3416 98.9276 45.6506 98.3651 45.8722C97.8068 46.0895 97.1697 46.1982 96.4538 46.1982ZM102.787 46V36.1818H104.634V37.7415H104.736C104.915 37.2131 105.231 36.7976 105.682 36.495C106.138 36.1882 106.654 36.0348 107.229 36.0348C107.349 36.0348 107.489 36.0391 107.651 36.0476C107.817 36.0561 107.947 36.0668 108.041 36.0795V37.9077C107.964 37.8864 107.828 37.8629 107.632 37.8374C107.436 37.8075 107.24 37.7926 107.044 37.7926C106.592 37.7926 106.189 37.8885 105.836 38.0803C105.486 38.2678 105.209 38.5298 105.005 38.8665C104.8 39.1989 104.698 39.5781 104.698 40.0043V46H102.787ZM117.052 38.5788L115.32 38.8857C115.248 38.6641 115.132 38.4531 114.975 38.2528C114.821 38.0526 114.613 37.8885 114.348 37.7607C114.084 37.6328 113.754 37.5689 113.358 37.5689C112.816 37.5689 112.365 37.6903 112.002 37.9332C111.64 38.1719 111.459 38.4808 111.459 38.8601C111.459 39.1882 111.581 39.4524 111.824 39.6527C112.066 39.853 112.458 40.017 113 40.1449L114.559 40.5028C115.463 40.7116 116.136 41.0334 116.579 41.468C117.022 41.9027 117.244 42.4673 117.244 43.1619C117.244 43.75 117.074 44.2741 116.733 44.7344C116.396 45.1903 115.925 45.5483 115.32 45.8082C114.719 46.0682 114.022 46.1982 113.23 46.1982C112.13 46.1982 111.233 45.9638 110.539 45.495C109.844 45.022 109.418 44.3509 109.26 43.4815L111.108 43.2003C111.223 43.6818 111.459 44.0462 111.817 44.2933C112.175 44.5362 112.642 44.6577 113.217 44.6577C113.843 44.6577 114.344 44.5277 114.719 44.2678C115.094 44.0036 115.282 43.6818 115.282 43.3026C115.282 42.9957 115.167 42.7379 114.936 42.5291C114.711 42.3203 114.363 42.1626 113.895 42.0561L112.233 41.6918C111.316 41.483 110.639 41.1506 110.2 40.6946C109.765 40.2386 109.548 39.6612 109.548 38.9624C109.548 38.3828 109.71 37.8757 110.034 37.4411C110.358 37.0064 110.805 36.6676 111.376 36.4247C111.947 36.1776 112.601 36.054 113.338 36.054C114.4 36.054 115.235 36.2841 115.844 36.7443C116.453 37.2003 116.856 37.8118 117.052 38.5788Z" fill="#7E92A2"/>
<path d="M39.408 122.72C37.056 122.72 34.976 122.208 33.168 121.184C31.36 120.144 29.936 118.72 28.896 116.912C27.872 115.104 27.36 113.024 27.36 110.672V98.768C27.36 96.416 27.872 94.336 28.896 92.528C29.936 90.72 31.36 89.304 33.168 88.28C34.976 87.24 37.056 86.72 39.408 86.72C41.76 86.72 43.84 87.24 45.648 88.28C47.456 89.304 48.872 90.72 49.896 92.528C50.936 94.336 51.456 96.416 51.456 98.768V110.672C51.456 113.024 50.936 115.104 49.896 116.912C48.872 118.72 47.456 120.144 45.648 121.184C43.84 122.208 41.76 122.72 39.408 122.72ZM39.408 117.92C40.688 117.92 41.848 117.616 42.888 117.008C43.944 116.384 44.784 115.552 45.408 114.512C46.032 113.456 46.344 112.28 46.344 110.984V98.408C46.344 97.128 46.032 95.968 45.408 94.928C44.784 93.872 43.944 93.04 42.888 92.432C41.848 91.808 40.688 91.496 39.408 91.496C38.128 91.496 36.96 91.808 35.904 92.432C34.864 93.04 34.032 93.872 33.408 94.928C32.784 95.968 32.472 97.128 32.472 98.408V110.984C32.472 112.28 32.784 113.456 33.408 114.512C34.032 115.552 34.864 116.384 35.904 117.008C36.96 117.616 38.128 117.92 39.408 117.92Z" fill="#7E92A2"/>
<rect x="164" y="44" width="80" height="80" rx="40" fill="url(#paint0_linear_457_6064)"/>
<path d="M200 70.6666C196.507 70.6666 193.667 73.5066 193.667 77C193.667 80.4266 196.347 83.2 199.84 83.32C199.947 83.3066 200.053 83.3066 200.133 83.32C200.16 83.32 200.173 83.32 200.2 83.32C200.213 83.32 200.213 83.32 200.227 83.32C203.64 83.2 206.32 80.4266 206.333 77C206.333 73.5066 203.493 70.6666 200 70.6666Z" fill="#7E92A2"/>
<path d="M206.773 86.8666C203.053 84.3866 196.987 84.3866 193.24 86.8666C191.547 88 190.613 89.5333 190.613 91.1733C190.613 92.8133 191.547 94.3333 193.227 95.4533C195.093 96.7066 197.547 97.3333 200 97.3333C202.453 97.3333 204.907 96.7066 206.773 95.4533C208.453 94.32 209.387 92.8 209.387 91.1466C209.373 89.5066 208.453 87.9866 206.773 86.8666Z" fill="#7E92A2"/>
<path d="M214.653 77.7866C214.867 80.3733 213.027 82.64 210.48 82.9466C210.467 82.9466 210.467 82.9466 210.453 82.9466H210.413C210.333 82.9466 210.253 82.9466 210.187 82.9733C208.893 83.04 207.707 82.6266 206.813 81.8666C208.187 80.64 208.973 78.8 208.813 76.8C208.72 75.72 208.347 74.7333 207.787 73.8933C208.293 73.64 208.88 73.48 209.48 73.4266C212.093 73.2 214.427 75.1466 214.653 77.7866Z" fill="#7E92A2"/>
<path d="M217.32 90.12C217.213 91.4133 216.387 92.5333 215 93.2933C213.667 94.0266 211.987 94.3733 210.32 94.3333C211.28 93.4666 211.84 92.3866 211.947 91.24C212.08 89.5866 211.293 88 209.72 86.7333C208.827 86.0266 207.787 85.4666 206.653 85.0533C209.6 84.2 213.307 84.7733 215.587 86.6133C216.813 87.6 217.44 88.84 217.32 90.12Z" fill="#7E92A2"/>
<defs>
<linearGradient id="paint0_linear_457_6064" x1="204" y1="44" x2="204" y2="124" gradientUnits="userSpaceOnUse">
<stop stop-color="#7E92A2" stop-opacity="0.5"/>
<stop offset="1" stop-color="white" stop-opacity="0"/>
</linearGradient>
</defs>
</svg>
