<svg width="268" height="168" viewBox="0 0 268 168" fill="none" xmlns="http://www.w3.org/2000/svg">
<rect x="0.5" y="0.5" width="267" height="167" rx="11.5" fill="white"/>
<rect x="0.5" y="0.5" width="267" height="167" rx="11.5" stroke="#EAEEF4"/>
<path d="M29.6761 46H25.4382V32.9091H29.8104C31.093 32.9091 32.1946 33.1712 33.1151 33.6953C34.0355 34.2152 34.7408 34.9631 35.2308 35.9389C35.7251 36.9105 35.9723 38.076 35.9723 39.4354C35.9723 40.799 35.723 41.9709 35.2244 42.951C34.7301 43.9311 34.0142 44.6854 33.0767 45.2138C32.1392 45.7379 31.0057 46 29.6761 46ZM27.4134 44.2741H29.5675C30.5646 44.2741 31.3935 44.0866 32.054 43.7116C32.7145 43.3324 33.2088 42.7848 33.5369 42.0689C33.8651 41.3487 34.0291 40.4709 34.0291 39.4354C34.0291 38.4084 33.8651 37.5369 33.5369 36.821C33.2131 36.1051 32.7294 35.5618 32.0859 35.1911C31.4425 34.8203 30.6435 34.6349 29.6889 34.6349H27.4134V44.2741ZM42.5066 46.1982C41.5392 46.1982 40.7061 45.9915 40.0073 45.5781C39.3127 45.1605 38.7757 44.5746 38.3965 43.8203C38.0215 43.0618 37.834 42.1733 37.834 41.1548C37.834 40.1491 38.0215 39.2628 38.3965 38.4957C38.7757 37.7287 39.3042 37.13 39.9817 36.6996C40.6635 36.2692 41.4604 36.054 42.3723 36.054C42.9263 36.054 43.4632 36.1456 43.9831 36.3288C44.503 36.5121 44.9696 36.7997 45.383 37.1918C45.7963 37.5838 46.1223 38.093 46.361 38.7195C46.5996 39.3416 46.7189 40.098 46.7189 40.9886V41.6662H38.9142V40.2344H44.8461C44.8461 39.7315 44.7438 39.2862 44.5392 38.8984C44.3347 38.5064 44.0471 38.1974 43.6763 37.9716C43.3098 37.7457 42.8794 37.6328 42.3851 37.6328C41.8482 37.6328 41.3794 37.7649 40.9789 38.0291C40.5826 38.2891 40.2757 38.63 40.0584 39.0518C39.8453 39.4695 39.7388 39.9233 39.7388 40.4134V41.532C39.7388 42.1882 39.8539 42.7464 40.084 43.2067C40.3184 43.6669 40.6444 44.0185 41.062 44.2614C41.4796 44.5 41.9675 44.6193 42.5257 44.6193C42.888 44.6193 43.2182 44.5682 43.5165 44.4659C43.8148 44.3594 44.0726 44.2017 44.29 43.9929C44.5073 43.7841 44.6735 43.5263 44.7885 43.2195L46.5975 43.5455C46.4526 44.0781 46.1926 44.5447 45.8176 44.9453C45.4469 45.3416 44.9803 45.6506 44.4178 45.8722C43.8596 46.0895 43.2225 46.1982 42.5066 46.1982ZM51.6967 46.2173C51.0746 46.2173 50.5121 46.1023 50.0092 45.8722C49.5064 45.6378 49.108 45.299 48.8139 44.8558C48.5241 44.4126 48.3793 43.8693 48.3793 43.2259C48.3793 42.6719 48.4858 42.2159 48.6989 41.858C48.9119 41.5 49.1996 41.2166 49.5618 41.0078C49.924 40.799 50.3288 40.6413 50.7763 40.5348C51.2237 40.4283 51.6797 40.3473 52.1442 40.2919C52.7322 40.2237 53.2095 40.1683 53.576 40.1257C53.9425 40.0788 54.2088 40.0043 54.375 39.902C54.5412 39.7997 54.6243 39.6335 54.6243 39.4034V39.3587C54.6243 38.8004 54.4666 38.3679 54.1513 38.0611C53.8402 37.7543 53.3757 37.6009 52.7578 37.6009C52.1143 37.6009 51.6072 37.7436 51.2365 38.0291C50.87 38.3104 50.6165 38.6236 50.4759 38.9688L48.6797 38.5597C48.8928 37.9631 49.2038 37.4815 49.6129 37.1151C50.0263 36.7443 50.5014 36.4759 51.0384 36.3097C51.5753 36.1392 52.1399 36.054 52.7322 36.054C53.1243 36.054 53.5398 36.1009 53.9787 36.1946C54.4219 36.2841 54.8352 36.4503 55.2188 36.6932C55.6065 36.9361 55.924 37.2834 56.1712 37.7351C56.4183 38.1825 56.5419 38.7642 56.5419 39.4801V46H54.6754V44.6577H54.5987C54.4751 44.9048 54.2898 45.1477 54.0426 45.3864C53.7955 45.625 53.478 45.8232 53.0902 45.9808C52.7024 46.1385 52.2379 46.2173 51.6967 46.2173ZM52.1122 44.6832C52.6406 44.6832 53.0923 44.5788 53.4673 44.37C53.8466 44.1612 54.1342 43.8885 54.3303 43.5518C54.5305 43.2109 54.6307 42.8466 54.6307 42.4588V41.1932C54.5625 41.2614 54.4304 41.3253 54.2344 41.3849C54.0426 41.4403 53.8232 41.4893 53.576 41.532C53.3288 41.5703 53.0881 41.6065 52.8537 41.6406C52.6193 41.6705 52.4233 41.696 52.2656 41.7173C51.8949 41.7642 51.5561 41.843 51.2493 41.9538C50.9467 42.0646 50.7038 42.2244 50.5206 42.4332C50.3416 42.6378 50.2521 42.9105 50.2521 43.2514C50.2521 43.7244 50.4268 44.0824 50.7763 44.3253C51.1257 44.5639 51.571 44.6832 52.1122 44.6832ZM60.9988 32.9091V46H59.0875V32.9091H60.9988ZM70.9272 38.5788L69.195 38.8857C69.1225 38.6641 69.0075 38.4531 68.8498 38.2528C68.6964 38.0526 68.4876 37.8885 68.2234 37.7607C67.9592 37.6328 67.6289 37.5689 67.2326 37.5689C66.6914 37.5689 66.2397 37.6903 65.8775 37.9332C65.5153 38.1719 65.3342 38.4808 65.3342 38.8601C65.3342 39.1882 65.4556 39.4524 65.6985 39.6527C65.9414 39.853 66.3335 40.017 66.8746 40.1449L68.4343 40.5028C69.3377 40.7116 70.011 41.0334 70.4542 41.468C70.8974 41.9027 71.119 42.4673 71.119 43.1619C71.119 43.75 70.9485 44.2741 70.6076 44.7344C70.271 45.1903 69.8001 45.5483 69.195 45.8082C68.5941 46.0682 67.8974 46.1982 67.1048 46.1982C66.0053 46.1982 65.1083 45.9638 64.4137 45.495C63.7191 45.022 63.293 44.3509 63.1353 43.4815L64.9826 43.2003C65.0977 43.6818 65.3342 44.0462 65.6921 44.2933C66.0501 44.5362 66.5167 44.6577 67.092 44.6577C67.7184 44.6577 68.2191 44.5277 68.5941 44.2678C68.9691 44.0036 69.1566 43.6818 69.1566 43.3026C69.1566 42.9957 69.0415 42.7379 68.8114 42.5291C68.5856 42.3203 68.2383 42.1626 67.7695 42.0561L66.1076 41.6918C65.1914 41.483 64.5138 41.1506 64.0749 40.6946C63.6403 40.2386 63.4229 39.6612 63.4229 38.9624C63.4229 38.3828 63.5849 37.8757 63.9087 37.4411C64.2326 37.0064 64.68 36.6676 65.2511 36.4247C65.8221 36.1776 66.4762 36.054 67.2134 36.054C68.2745 36.054 69.1097 36.2841 69.7191 36.7443C70.3285 37.2003 70.7312 37.8118 70.9272 38.5788Z" fill="#7E92A2"/>
<path d="M39.408 122.72C37.056 122.72 34.976 122.208 33.168 121.184C31.36 120.144 29.936 118.72 28.896 116.912C27.872 115.104 27.36 113.024 27.36 110.672V98.768C27.36 96.416 27.872 94.336 28.896 92.528C29.936 90.72 31.36 89.304 33.168 88.28C34.976 87.24 37.056 86.72 39.408 86.72C41.76 86.72 43.84 87.24 45.648 88.28C47.456 89.304 48.872 90.72 49.896 92.528C50.936 94.336 51.456 96.416 51.456 98.768V110.672C51.456 113.024 50.936 115.104 49.896 116.912C48.872 118.72 47.456 120.144 45.648 121.184C43.84 122.208 41.76 122.72 39.408 122.72ZM39.408 117.92C40.688 117.92 41.848 117.616 42.888 117.008C43.944 116.384 44.784 115.552 45.408 114.512C46.032 113.456 46.344 112.28 46.344 110.984V98.408C46.344 97.128 46.032 95.968 45.408 94.928C44.784 93.872 43.944 93.04 42.888 92.432C41.848 91.808 40.688 91.496 39.408 91.496C38.128 91.496 36.96 91.808 35.904 92.432C34.864 93.04 34.032 93.872 33.408 94.928C32.784 95.968 32.472 97.128 32.472 98.408V110.984C32.472 112.28 32.784 113.456 33.408 114.512C34.032 115.552 34.864 116.384 35.904 117.008C36.96 117.616 38.128 117.92 39.408 117.92Z" fill="#7E92A2"/>
<rect x="164" y="44" width="80" height="80" rx="40" fill="url(#paint0_linear_480_1943)"/>
<path d="M216.12 77.3067C214.987 76.0533 213.093 75.4267 210.347 75.4267H210.027V75.3733C210.027 73.1333 210.027 70.36 205.013 70.36H202.987C197.973 70.36 197.973 73.1467 197.973 75.3733V75.44H197.653C194.893 75.44 193.013 76.0667 191.88 77.32C190.56 78.7867 190.6 80.76 190.733 82.1067L190.747 82.2L190.85 83.2844C190.869 83.4841 190.977 83.6644 191.144 83.7743C191.464 83.9835 191.999 84.3284 192.32 84.5067C192.507 84.6267 192.707 84.7333 192.907 84.84C195.187 86.0933 197.693 86.9333 200.24 87.3467C200.36 88.6 200.907 90.0667 203.827 90.0667C206.747 90.0667 207.32 88.6133 207.413 87.32C210.133 86.88 212.76 85.9333 215.133 84.5467C215.213 84.5067 215.267 84.4667 215.333 84.4267C215.862 84.1277 216.411 83.7593 216.911 83.3984C217.062 83.2897 217.158 83.1217 217.179 82.937L217.2 82.7467L217.267 82.12C217.28 82.04 217.28 81.9733 217.293 81.88C217.4 80.5333 217.373 78.6933 216.12 77.3067ZM205.453 86.44C205.453 87.8533 205.453 88.0667 203.813 88.0667C202.173 88.0667 202.173 87.8133 202.173 86.4533V84.7733H205.453V86.44ZM199.88 75.3733C199.88 73.1067 199.88 72.2667 202.987 72.2667H205.013C208.12 72.2667 208.12 73.12 208.12 75.3733V75.44H199.88V75.3733Z" fill="#7E92A2"/>
<path d="M215.831 86.3122C216.303 86.0879 216.846 86.4616 216.799 86.9816L216.32 92.2533C216.04 94.92 214.947 97.64 209.08 97.64H198.92C193.053 97.64 191.96 94.92 191.68 92.2667L191.226 87.2696C191.179 86.7556 191.71 86.3823 192.18 86.595C193.699 87.2824 196.503 88.5019 198.235 88.9555C198.455 89.0129 198.632 89.1697 198.728 89.3749C199.537 91.1057 201.292 92.0267 203.827 92.0267C206.336 92.0267 208.114 91.0702 208.926 89.3352C209.022 89.1299 209.199 88.9731 209.418 88.9154C211.258 88.4314 214.242 87.0683 215.831 86.3122Z" fill="#7E92A2"/>
<defs>
<linearGradient id="paint0_linear_480_1943" x1="204" y1="44" x2="204" y2="124" gradientUnits="userSpaceOnUse">
<stop stop-color="#7E92A2" stop-opacity="0.5"/>
<stop offset="1" stop-color="white" stop-opacity="0"/>
</linearGradient>
</defs>
</svg>
